<svg xmlns="http://www.w3.org/2000/svg" fill="none" viewBox="-0.5 -0.5 24 24" id="Information-Desk-Customer--Streamline-Ultimate" height="24" width="24"><desc>Information Desk Customer Streamline Icon: https://streamlinehq.com</desc><path stroke="currentColor" stroke-linecap="round" stroke-linejoin="round" d="M2.875 3.59375c0 0.7624979166666667 0.30290041666666667 1.49376375 0.8420683333333334 2.032931666666667C4.256236250000001 6.165849583333333 4.987502083333333 6.46875 5.75 6.46875s1.49376375 -0.30290041666666667 2.032931666666667 -0.8420683333333334C8.322099583333333 5.087513749999999 8.625 4.356247916666667 8.625 3.59375s-0.30290041666666667 -1.49376375 -0.8420683333333334 -2.032931666666667C7.24376375 1.0216504166666667 6.512497916666667 0.71875 5.75 0.71875s-1.49376375 0.30290041666666667 -2.032931666666667 0.8420683333333334C3.1779004166666667 2.09998625 2.875 2.8312520833333332 2.875 3.59375Z" stroke-width="1.5"></path><path stroke="currentColor" stroke-linecap="round" stroke-linejoin="round" d="M10.78125 12.9375c0 -1.3343833333333335 -0.5300541666666667 -2.6140458333333334 -1.4736195833333334 -3.557630416666667C8.364084166666668 8.436323333333334 7.08437375 7.90625 5.75 7.90625c-1.3343737500000001 0 -2.6140841666666668 0.5300733333333333 -3.557630416666667 1.4736195833333334C1.2488233333333334 10.323454166666666 0.71875 11.603116666666667 0.71875 12.9375v2.15625H2.875l0.71875 7.1875h4.3125l0.71875 -7.1875h2.15625V12.9375Z" stroke-width="1.5"></path><path stroke="currentColor" stroke-linecap="round" stroke-linejoin="round" d="M15.453125 3.234375c0 0.6671820833333333 0.265075 1.3070420833333334 0.7367666666666667 1.77882C16.661679166666666 5.484963333333334 17.301558333333332 5.75 17.96875 5.75c0.6671916666666667 0 1.3070708333333332 -0.26503666666666664 1.7788583333333334 -0.736805 0.47169166666666673 -0.4717779166666667 0.7367666666666667 -1.1116379166666666 0.7367666666666667 -1.77882 0 -0.6671820833333333 -0.265075 -1.3070420833333334 -0.7367666666666667 -1.77882C19.275820833333334 0.9837866666666666 18.635941666666668 0.71875 17.96875 0.71875c-0.6671916666666667 0 -1.3070708333333332 0.26503666666666664 -1.7788583333333334 0.736805 -0.47169166666666673 0.4717779166666667 -0.7367666666666667 1.1116379166666666 -0.7367666666666667 1.77882Z" stroke-width="1.5"></path><path stroke="currentColor" stroke-linecap="round" stroke-linejoin="round" d="M13.65625 10.78125c0 -1.1437708333333334 0.4543458333333334 -2.240650416666667 1.2630833333333333 -3.0493975C15.728070833333334 6.923105416666666 16.82497916666667 6.46875 17.96875 6.46875s2.2406791666666668 0.4543554166666667 3.0494166666666667 1.2631025c0.8087375 0.8087470833333334 1.2630833333333333 1.9056266666666668 1.2630833333333333 3.0493975h-8.625Z" stroke-width="1.5"></path><path stroke="currentColor" stroke-linecap="round" stroke-linejoin="round" d="M10.290583333333334 10.78125H22.28125" stroke-width="1.5"></path></svg>