<svg xmlns="http://www.w3.org/2000/svg" fill="none" viewBox="-0.75 -0.75 24 24" id="Firefighter-Truck--Streamline-Plump" height="24" width="24"><desc>Firefighter Truck Streamline Icon: https://streamlinehq.com</desc><g id="firefighter-truck"><path id="Vector 1445" stroke="currentColor" stroke-linecap="round" stroke-linejoin="round" d="M15.9375 1.40625 3.1059375 7.60078125" stroke-width="1.5"></path><path id="Ellipse 42" stroke="currentColor" stroke-linecap="round" stroke-linejoin="round" d="M13.59375 18.75a2.34375 2.34375 0 1 0 4.6875 0 2.34375 2.34375 0 0 0 -4.6875 0Z" stroke-width="1.5"></path><path id="Ellipse 43" stroke="currentColor" stroke-linecap="round" stroke-linejoin="round" d="M4.21875 18.75a2.34375 2.34375 0 1 0 4.6875 0 2.34375 2.34375 0 0 0 -4.6875 0Z" stroke-width="1.5"></path><path id="Subtract" stroke="currentColor" stroke-linecap="round" stroke-linejoin="round" d="M18.279375 18.654843749999998c0.64078125 -0.02296875 1.18171875 -0.046875 1.6125 -0.06890625a1.3359375 1.3359375 0 0 0 1.2759375 -1.2740624999999999 46.1671875 46.1671875 0 0 0 -0.024374999999999997 -4.3453124999999995 3.271875 3.271875 0 0 0 -0.43125 -1.4634375c-0.90234375 -1.5646875 -1.7662499999999999 -2.69296875 -2.31234375 -3.3454687499999998a2.2078125 2.2078125 0 0 0 -1.4615624999999999 -0.78140625c-1.18453125 -0.12609375 -2.28609375 -0.0834375 -3.0590625 -0.01546875 -0.6520312500000001 0.0571875 -1.1296875000000002 0.60234375 -1.1512499999999999 1.25625 -0.008437499999999999 0.25453125000000004 -0.0159375 0.5071875 -0.0225 0.75796875h-1.9640625000000003l-0.012656249999999999 -0.5175000000000001a1.3790625 1.3790625 0 0 0 -1.3982812500000001 -1.3453125000000001 277.96875 277.96875 0 0 0 -6.493125 0.17015625c-0.6989062500000001 0.02578125 -1.2684374999999999 0.5634375 -1.3096875000000001 1.261875C1.47 9.9159375 1.40625 11.4496875 1.40625 13.469062500000001c0 1.861875 0.054375 3.1335937499999997 0.1078125 3.9356250000000004 0.04359375 0.6548437500000001 0.5671875 1.14703125 1.2225000000000001 1.17890625 0.39375 0.01921875 0.8892187500000001 0.04078125 1.4845312499999999 0.061875" stroke-width="1.5"></path><path id="Subtract_2" stroke="currentColor" stroke-linecap="round" stroke-linejoin="round" d="M13.59375 18.75h-4.21875v-0.004218749999999999l-0.46875 -0.00328125" stroke-width="1.5"></path><path id="Subtract_3" stroke="currentColor" stroke-linecap="round" stroke-linejoin="round" d="M14.0634375 7.3453125c0.006093749999999999 -0.53109375 0.04359375 -1.05515625 0.08671875 -1.4953125 0.065625 -0.67359375 0.6421875 -1.1625 1.31859375 -1.1625s1.25296875 0.48890625 1.31859375 1.1625c0.04359375 0.44671875 0.0815625 0.9796874999999999 0.0871875 1.5196875" stroke-width="1.5"></path><path id="Vector 734" stroke="currentColor" stroke-linecap="round" stroke-linejoin="round" d="M18.4115625 12.227343750000001c-0.26109375 -0.47203124999999996 -0.9890625 -1.6790625 -1.869375 -2.2303125a0.71109375 0.71109375 0 0 0 -0.2915625 -0.1003125 6.5671875 6.5671875 0 0 0 -0.9646874999999999 -0.050624999999999996c-0.361875 0.01171875 -0.63515625 0.29859375 -0.6609375 0.6599999999999999 -0.054843750000000004 0.7518750000000001 -0.012656249999999999 1.70296875 0.02671875 2.311875 0.023906249999999997 0.37031250000000004 0.2746875 0.6871875 0.6421875 0.7406250000000001 0.75328125 0.11015625 1.723125 0.09703125 2.34984375 0.07125 0.3853125 -0.0159375 0.7157812499999999 -0.27796875 0.7959375 -0.6548437500000001a4.3734375 4.3734375 0 0 0 0.059062500000000004 -0.33281249999999996 0.6759375 0.6759375 0 0 0 -0.0871875 -0.41484375Z" stroke-width="1.5"></path><path id="Vector 1442" stroke="currentColor" stroke-linecap="round" stroke-linejoin="round" d="m3.984375 10.546875 4.21875 0" stroke-width="1.5"></path><path id="Vector 1443" stroke="currentColor" stroke-linecap="round" stroke-linejoin="round" d="m3.984375 13.359375 4.21875 0" stroke-width="1.5"></path></g></svg>