<svg viewBox="-0.5 -0.5 16 16" fill="none" xmlns="http://www.w3.org/2000/svg" id="Question-Circle--Streamline-Solar-Ar" height="16" width="16"><desc>Question Circle Streamline Icon: https://streamlinehq.com</desc><path stroke="currentColor" d="M1.25 7.5a6.25 6.25 0 1 0 12.5 0 6.25 6.25 0 1 0 -12.5 0" stroke-width="1"></path><path d="M6.328125 5.546875C6.328125 4.89966875 6.8528125 4.375 7.5 4.375c0.6471875 0 1.171875 0.52466875 1.171875 1.171875 0 0.42965625 -0.23125 0.8053125 -0.576 1.0093125 -0.297125 0.17575000000000002 -0.595875 0.44237499999999996 -0.595875 0.7875624999999999V8.125" stroke="currentColor" stroke-linecap="round" stroke-width="1"></path><path fill="currentColor" d="M6.875 10a0.625 0.625 0 1 0 1.25 0 0.625 0.625 0 1 0 -1.25 0" stroke-width="1"></path></svg>