<svg xmlns="http://www.w3.org/2000/svg" fill="none" viewBox="-0.75 -0.75 24 24" id="Shipment-Upload--Streamline-Plump" height="24" width="24"><desc>Shipment Upload Streamline Icon: https://streamlinehq.com</desc><g id="shipment-upload--shipping-parcel-shipment-upload"><path id="Vector" stroke="currentColor" stroke-linecap="round" stroke-linejoin="round" d="M11.25 1.40625c2.8471875 0 4.4934375 0.12 5.42484375 0.2390625 0.7584375000000001 0.09609374999999999 1.3715625 0.5526562500000001 1.78640625 1.19484375 0.538125 0.8315625 1.3134375 2.1060937500000003 1.94296875 3.4396875000000002 0.515625 1.093125 0.6890625 2.3053125 0.6890625 3.51421875L21.09375 14.296875c0 1.81171875 -0.09515625000000001 3.3084375 -0.19921875 4.40625 -0.11859375 1.2440625 -1.1240625 2.16515625 -2.3718749999999997 2.2284374999999996 -1.55625 0.07875 -3.97828125 0.16218749999999998 -7.272656250000001 0.16218749999999998 -3.2943749999999996 0 -5.71640625 -0.0834375 -7.272656250000001 -0.16218749999999998 -1.2478125 -0.06375 -2.25375 -0.984375 -2.3718749999999997 -2.2284374999999996A46.830937500000005 46.830937500000005 0 0 1 1.40625 14.296875l0 -4.5028125c0 -1.209375 0.1734375 -2.42109375 0.68953125 -3.51421875 0.62953125 -1.3335937500000001 1.40484375 -2.6081250000000002 1.94296875 -3.4396875000000002 0.41484375 -0.6421875 1.02796875 -1.09875 1.7859375 -1.1953125C6.75703125 1.5262499999999999 8.40328125 1.40625 11.25 1.40625Z" stroke-width="1.5"></path><path id="Rectangle 1096" stroke="currentColor" stroke-linecap="round" stroke-linejoin="round" d="M1.60546875 18.737812499999997c0.11484375 1.2121875 1.08890625 2.10234375 2.3043750000000003 2.17171875 1.5534375 0.0890625 3.9984374999999996 0.18421875000000001 7.340156250000001 0.18421875000000001 3.3421875 0 5.78671875 -0.09515625000000001 7.340156250000001 -0.18421875000000001 1.2154687499999999 -0.06937499999999999 2.18953125 -0.9595312500000001 2.3043750000000003 -2.17171875 0.1040625 -1.10390625 0.19921875 -2.6615625 0.19921875 -4.6753125s-0.09515625000000001 -3.57140625 -0.19921875 -4.6753125c-0.11484375 -1.2121875 -1.08890625 -2.10234375 -2.3043750000000003 -2.17171875C17.03671875 7.12640625 14.59171875 7.03125 11.25 7.03125c-3.3421875 0 -5.78671875 0.09515625000000001 -7.340156250000001 0.18421875000000001 -1.2154687499999999 0.06937499999999999 -2.18953125 0.9595312500000001 -2.3043750000000003 2.17171875C1.5014062499999998 10.491093750000001 1.40625 12.04875 1.40625 14.0625s0.09515625000000001 3.57140625 0.19921875 4.6753125Z" stroke-width="1.5"></path><path id="Vector 844" stroke="currentColor" stroke-linecap="round" stroke-linejoin="round" d="M11.25 1.40625v5.625" stroke-width="1.5"></path><path id="Union" stroke="currentColor" stroke-linecap="round" stroke-linejoin="round" d="M7.84875 13.441875c-0.45515625 0.58125 -0.13874999999999998 1.2778125 0.5985937499999999 1.3209375a36.965625 36.965625 0 0 0 1.2140624999999998 0.048749999999999995c0.034687499999999996 0.8578125000000001 0.07921875 1.7203125 0.1115625 2.31 0.024843749999999998 0.459375 0.32109375 0.8615625 0.77578125 0.9328125 0.20484375 0.031406250000000004 0.44296874999999997 0.054843750000000004 0.7017187500000001 0.054843750000000004 0.25875000000000004 0 0.496875 -0.0234375 0.7021875 -0.0553125 0.45515625 -0.0703125 0.7518750000000001 -0.4734375 0.77671875 -0.9332812500000001 0.031875 -0.5901562499999999 0.0759375 -1.45125 0.11015625 -2.3090625a36.3853125 36.3853125 0 0 0 1.213125 -0.048749999999999995c0.7378125 -0.043125 1.0546875 -0.7396875 0.5990625 -1.3209375a29.176875 29.176875 0 0 0 -1.10015625 -1.3143749999999998c-0.7214062499999999 -0.8170312500000001 -1.273125 -1.30453125 -1.6556250000000001 -1.591875 -0.39375 -0.29625 -0.8971874999999999 -0.29625 -1.2914062499999999 0 -0.38203125 0.28734375 -0.93375 0.7753125 -1.65515625 1.591875a29.158593749999998 29.158593749999998 0 0 0 -1.100625 1.3143749999999998Z" stroke-width="1.5"></path></g></svg>